<svg width="466" height="666" viewBox="0 0 466 666" xmlns="http://www.w3.org/2000/svg" xmlns:xlink="http://www.w3.org/1999/xlink">
    <g id="Pi">
        <path id="Path" fill="#efb381" stroke="none" d="M 438.76001 527.047974 C 439.079987 528.176025 438.76001 529.047974 438.359985 529.687988 C 438.040009 530.247986 437.480011 530.968018 436.359985 531.208008 C 424.279999 534.488037 413.23999 541.927979 405 551.76001 L 405 514 L 436.920013 514 C 437 518.407959 437.640015 522.807983 438.76001 527.047974 Z"/>
        <path id="path1" fill="#ffd2a6" stroke="none" d="M 466.829407 490.464355 C 461.524963 499.681396 459.372803 511.225586 461.960022 520.888 C 465.880005 535.440002 457.152039 550.567993 442.600037 554.400024 C 427.960022 558.320007 415 573.848022 413.720032 588.888 C 412.359985 603.848022 399 615.119995 383.960022 613.76001 C 368.920044 612.400024 351.400024 622.567993 345.080017 636.247986 C 338.679993 649.927979 322.280029 655.848022 308.679993 649.528015 C 295 643.119995 275.080017 646.64801 264.359985 657.287964 C 253.720032 668.007996 236.279999 668.007996 225.640015 657.287964 C 215 646.64801 195.080017 643.119995 181.399994 649.528015 C 167.720001 655.927979 151.320007 649.927979 144.920013 636.247986 C 138.600006 622.567993 121.080017 612.488037 106.040009 613.76001 C 91 615.119995 77.640015 603.927979 76.279999 588.888 C 75 573.848022 62.040009 558.328003 47.399994 554.400024 C 32.847992 550.567993 24.119995 535.440002 28.040009 520.888 C 31.959991 506.328003 25 487.287994 12.679993 478.64801 C 0.359985 470.007996 -2.76001 452.808014 5.959991 440.40799 C 14.600006 428.088013 14.600006 407.856018 5.959991 395.536011 C -2.76001 383.127991 0.359985 366.015991 12.679993 357.367981 C 25 348.64801 31.959991 329.687988 28.040009 315.127991 C 24.119995 300.575989 32.847992 285.447998 47.399994 281.536011 C 62.040009 277.695984 75 262.176025 76.279999 247.127991 C 77.640015 232.088013 91 220.895996 106.040009 222.176025 C 121.080017 223.536011 138.600006 213.368042 144.920013 199.687988 C 151.320007 186.007996 167.720001 180.088013 181.320007 186.40802 C 195 192.808044 214.920013 189.288025 225.640015 178.64801 C 236.279999 168.007996 253.720032 168.007996 264.440002 178.64801 C 275.080017 189.368042 295 192.888 308.679993 186.488037 C 322.280029 180.080017 338.679993 186.080017 345.080017 199.76001 C 351.480042 213.440002 368.920044 223.528015 383.960022 222.247986 C 399 220.888 412.359985 232.080017 413.720032 247.119995 C 415 262.16803 427.960022 277.679993 442.600037 281.528015 C 446.529053 282.584229 450.033569 284.45813 452.979126 286.917542 L 433.144592 303.762329 C 422.394836 300.162903 412.571228 293.129578 405 284.247986 C 396.600037 274.328003 390.920044 261.92804 389.799988 249.208008 C 389.640015 247.367981 387.888 246.080017 386.440002 246.080017 C 384.528015 246.247986 382.92804 246.320007 381.320007 246.320007 C 367 246.320007 352.440002 240.720032 341 231.679993 C 333.480042 225.679993 327.160034 218.23999 323.320007 209.848022 C 322.359985 207.76001 320.200012 207.608032 318.840027 208.247986 C 311.23999 211.76001 302.35199 213.687988 293.23999 213.687988 C 287.720032 213.687988 282.280029 213.048035 277 211.687988 C 265.559998 208.968018 255.080017 203.288025 247.400024 195.608032 C 245.799988 194.007996 244.208008 194.007996 242.600006 195.608032 C 234.920013 203.288025 224.432007 208.888 213 211.608032 C 207.720001 212.968018 202.279999 213.687988 196.76001 213.687988 C 187.640015 213.687988 178.848022 211.768005 171.160004 208.176025 C 169.800018 207.536011 167.64801 207.768005 166.679993 209.856018 C 162.76001 218.256042 156.52002 225.687988 148.920013 231.536011 C 136.112 241.768005 119.472015 247.536011 103.880005 246.088013 C 102.112 246.088013 100.360016 247.367981 100.200012 249.216003 C 99.071991 261.936035 93.391998 274.335999 85 284.255981 C 76.679993 294.015991 65.640015 301.536011 53.640015 304.736023 C 52.519989 304.976013 51.959991 305.776001 51.559998 306.335999 C 51.23999 306.895996 50.920013 307.776001 51.23999 308.895996 C 52.360016 313.127991 53 317.536011 53.071991 322.015991 C 53.712006 343.05603 43.472015 365.05603 26.432007 376.976013 C 25.472015 377.695984 25.152008 378.575989 25.071991 379.216003 C 24.911987 379.856018 24.911987 380.807983 25.559998 381.768005 C 26.519989 383.127991 27.391998 384.575989 28.279999 386.007996 C 39.23999 405.048035 39.23999 430.967987 28.279999 450.007996 C 27.399994 451.447998 26.519989 452.888 25.559998 454.247986 C 24.920013 455.119995 24.920013 456.079987 25.071991 456.799988 C 25.152008 457.440002 25.472015 458.320007 26.432007 458.967987 C 43.472015 470.967987 53.791992 492.967987 53.071991 514.007996 C 52.992004 518.407959 52.35199 522.807983 51.23999 527.047974 C 50.920013 528.176025 51.23999 529.047974 51.640015 529.687988 C 51.959991 530.247986 52.519989 530.968018 53.640015 531.287964 C 65.640015 534.488037 76.679993 542.007996 85 551.768005 C 93.480011 561.687988 99.080017 574.088013 100.200012 586.807983 C 100.360016 588.64801 102.112 589.936035 103.640015 589.936035 C 105.472015 589.768005 107.080017 589.696045 108.76001 589.696045 C 123 589.696045 137.480011 595.216003 148.928009 604.335999 C 156.528015 610.255981 162.76001 617.776001 166.688019 626.176025 C 167.64801 628.255981 169.888 628.407959 171.248016 627.768005 C 178.848022 624.255981 187.727997 622.328003 196.848022 622.328003 C 202.360016 622.328003 207.800018 622.968018 213.007996 624.328003 C 224.447998 627.047974 234.928009 632.64801 242.608002 640.328003 C 244.208008 641.927979 245.799988 641.927979 247.40802 640.328003 C 255.088013 632.64801 265.575989 627.047974 277.007996 624.328003 C 282.288025 622.968018 287.728027 622.328003 293.247986 622.328003 C 302.368042 622.328003 311.160034 624.167969 318.848022 627.768005 C 320.208008 628.407959 322.359985 628.255981 323.328003 626.088013 C 327.247986 617.687988 333.488037 610.176025 341.088013 604.328003 C 353.895996 594.247986 370.447998 588.495972 386.127991 589.848022 C 387.895996 589.848022 389.64801 588.64801 389.808044 586.719971 C 390.936035 574.079956 396.536011 561.76001 405.007996 551.76001 C 413.247986 541.927979 424.288025 534.488037 436.368042 531.208008 C 437.488037 530.968018 438.048035 530.247986 438.368042 529.687988 C 438.768005 529.047974 439.088013 528.176025 438.768005 527.047974 C 437.64801 522.807983 437.007996 518.407959 436.936035 514.007996 C 436.504028 501.384003 440.046387 488.414398 446.630066 477.466553 Z"/>
        <path id="path2" fill="#ed5565" stroke="none" d="M 341 604.247986 L 341.079987 604.328003 C 333.480011 610.167969 327.247986 617.687988 323.320007 626.088013 C 322.359985 628.255981 320.200012 628.407959 318.839996 627.768005 C 311.152008 624.176025 302.35199 622.328003 293.23999 622.328003 C 287.720001 622.328003 282.279999 622.968018 277 624.328003 L 277 624.247986 L 277 578.007996 L 341 578.007996 Z"/>
        <path id="path3" fill="#efb381" stroke="none" d="M 277 514.007996 L 341 514.007996 L 341 578.007996 L 277 578.007996 Z"/>
        <path id="path4" fill="#ed5565" stroke="none" d="M 277 450.007996 L 341 450.007996 L 341 514.007996 L 277 514.007996 Z"/>
        <path id="path5" fill="#efb381" stroke="none" d="M 277 386.007996 L 341 386.007996 L 341 450.007996 L 277 450.007996 Z"/>
        <path id="Path-copy-6" fill="#ed5565" fill-rule="evenodd" stroke="none" d="M 404.000002 342.465576 L 404.000002 322.008545 L 415.525393 322.008545 C 411.26792 328.002131 407.278514 334.817326 404.000002 342.465576 Z"/>
        <path id="Path-copy-5" fill="#ed5565" fill-rule="evenodd" stroke="none" d="M 404.000002 514.008545 L 404.000002 450.008545 L 416.419924 450.008545 C 425.742937 462.641719 436.620082 471.593361 445.574221 477.551514 C 439.022737 488.481739 435.496835 501.416665 435.927736 514.008545 L 404.000002 514.008545 Z"/>
        <path id="Path-copy-4" fill="#efb381" fill-rule="evenodd" stroke="none" d="M 404.000002 450.008545 L 404.000002 428.121826 C 407.455529 436.401331 411.741255 443.668702 416.419924 450.008545 L 404.000002 450.008545 Z"/>
        <path id="Path-copy-3" fill="#efb381" fill-rule="evenodd" stroke="none" d="M 404.000002 322.008545 L 404.000002 284.248779 C 411.451135 292.989532 421.084713 299.929214 431.634768 303.582764 C 426.414272 308.493811 420.767981 314.628132 415.525393 322.008545 L 404.000002 322.008545 Z"/>
        <path id="Path-copy-2" fill="#f7c292" fill-rule="evenodd" stroke="none" d="M 340.08008 604.33667 L 340.000002 604.248779 L 340.000002 578.008545 L 340.000002 514.008545 L 340.000002 450.008545 L 340.000002 386.008545 L 340.000002 322.008545 L 340.000002 258.008545 L 340.000002 231.688232 C 351.439993 240.728232 366.000322 246.328857 380.320315 246.328857 C 381.920319 246.328857 383.519444 246.248596 385.439455 246.088623 C 386.879456 246.088623 388.64081 247.367739 388.800783 249.207764 C 389.928803 261.927752 395.608012 274.328806 404.000002 284.248779 L 404.000002 322.008545 L 404.000002 342.465576 C 398.797371 354.602492 395.387652 368.835589 395.550783 385.215576 C 395.695356 401.846736 398.96539 416.058807 404.000002 428.121826 L 404.000002 450.008545 L 404.000002 514.008545 L 404.000002 551.768311 C 395.52 561.768301 389.920808 574.087323 388.800783 586.727295 C 388.64081 588.647306 386.887146 589.856201 385.119143 589.856201 C 369.439166 588.496217 352.888081 594.256693 340.08008 604.33667 Z"/>
        <path id="path6" fill="#ed5565" stroke="none" d="M 277 322.007996 L 341 322.007996 L 341 386.007996 L 277 386.007996 Z"/>
        <path id="path7" fill="#efb381" stroke="none" d="M 277 258.007996 L 341 258.007996 L 341 322.007996 L 277 322.007996 Z"/>
        <path id="path8" fill="#ed5565" stroke="none" d="M 341 231.687988 L 341 258.007996 L 277 258.007996 L 277 211.687988 C 282.279999 213.048004 287.720001 213.687988 293.23999 213.687988 C 302.359985 213.687988 311.23999 211.768005 318.839996 208.247986 C 320.200012 207.608002 322.35199 207.76001 323.320007 209.847992 C 327.160004 218.247986 333.480011 225.687988 341 231.687988 Z"/>
        <path id="path9" fill="#f7c292" stroke="none" d="M 277 624.247986 L 277 624.328003 C 265.559998 627.047974 255.079987 632.64801 247.399994 640.328003 C 245.799988 641.927979 244.207993 641.927979 242.600006 640.328003 C 234.919998 632.64801 224.432007 627.047974 213 624.328003 L 213 624.247986 L 213 578.007996 L 213 514.007996 L 213 450.007996 L 213 386.007996 L 213 322.007996 L 213 258.007996 L 213 211.687988 L 213 211.608002 C 224.440002 208.888 234.919998 203.287994 242.600006 195.608002 C 244.199997 194.007996 245.791992 194.007996 247.399994 195.608002 C 255.079987 203.287994 265.567993 208.967987 277 211.687988 L 277 258.007996 L 277 322.007996 L 277 386.007996 L 277 450.007996 L 277 514.007996 L 277 578.007996 Z"/>
        <path id="path10" fill="#ed5565" stroke="none" d="M 213 624.247986 L 213 624.328003 C 207.800003 622.968018 202.360001 622.328003 196.839996 622.328003 C 187.712006 622.328003 178.839996 624.247986 171.240005 627.768005 C 169.880005 628.407959 167.639999 628.255981 166.679993 626.176025 C 162.759995 617.768005 156.520004 610.255981 148.919998 604.335999 L 149 604.255981 L 149 578.015991 L 213 578.015991 Z"/>
        <path id="path11" fill="#efb381" stroke="none" d="M 149 514.007996 L 213 514.007996 L 213 578.007996 L 149 578.007996 Z"/>
        <path id="path12" fill="#ed5565" stroke="none" d="M 149 450.007996 L 213 450.007996 L 213 514.007996 L 149 514.007996 Z"/>
        <path id="path13" fill="#efb381" stroke="none" d="M 149 386.007996 L 213 386.007996 L 213 450.007996 L 149 450.007996 Z"/>
        <path id="path14" fill="#ed5565" stroke="none" d="M 149 322.007996 L 213 322.007996 L 213 386.007996 L 149 386.007996 Z"/>
        <path id="path15" fill="#efb381" stroke="none" d="M 149 258.007996 L 213 258.007996 L 213 322.007996 L 149 322.007996 Z"/>
        <path id="path16" fill="#ed5565" stroke="none" d="M 213 211.687988 L 213 258.007996 L 149 258.007996 L 149 231.608002 L 148.919998 231.528015 C 156.520004 225.687988 162.751999 218.247986 166.679993 209.847992 C 167.639999 207.76001 169.800003 207.528015 171.160004 208.167999 C 178.848007 211.76001 187.647995 213.679993 196.759995 213.679993 C 202.279999 213.679993 207.720001 212.959991 213 211.600006 Z"/>
        <path id="path17" fill="#f7c292" stroke="none" d="M 149 578.007996 L 149 604.247986 L 148.919998 604.328003 C 137.472 595.208008 123 589.687988 108.751999 589.687988 C 107.071999 589.687988 105.472 589.768005 103.632004 589.927979 C 102.112 589.927979 100.351997 588.64801 100.192001 586.799988 C 99.064003 574.079956 93.463997 561.679993 84.991997 551.76001 L 84.991997 514 L 84.991997 450 L 84.991997 386 L 84.991997 322 L 84.991997 284.23999 C 93.391998 274.320007 99.071999 261.919983 100.192001 249.200012 C 100.351997 247.359985 102.103996 246.071991 103.872002 246.071991 C 119.464005 247.519989 136.104004 241.752014 148.912003 231.519989 L 149 231.608002 L 149 258.007996 L 149 322.007996 L 149 386.007996 L 149 450.007996 L 149 514.007996 Z"/>
        <path id="path18" fill="#efb381" stroke="none" d="M 85 514.007996 L 85 551.768005 C 76.68 542.007996 65.639999 534.495972 53.639999 531.287964 C 52.52 530.968018 51.959999 530.247986 51.639999 529.687988 C 51.240002 529.047974 50.919998 528.176025 51.240002 527.047974 C 52.360001 522.807983 53 518.407959 53.071999 514.007996 Z"/>
        <path id="path19" fill="#ed5565" stroke="none" d="M 85 450.007996 L 85 514.007996 L 53.080002 514.007996 C 53.800003 492.967987 43.48 470.967987 26.439999 458.967987 C 25.48 458.328003 25.16 457.447998 25.080002 456.799988 C 24.919998 456.079987 24.919998 455.119995 25.568001 454.247986 C 26.528 452.888 27.400002 451.440002 28.287998 450.007996 Z"/>
        <path id="path20" fill="#efb381" stroke="none" d="M 85 386.007996 L 85 450.007996 L 28.279999 450.007996 C 39.240002 430.967987 39.240002 405.048004 28.279999 386.007996 Z"/>
        <path id="path21" fill="#ed5565" stroke="none" d="M 85 322.007996 L 85 386.007996 L 28.279999 386.007996 C 27.400002 384.567993 26.52 383.127991 25.560001 381.768005 C 24.919998 380.807983 24.919998 379.856018 25.071999 379.216003 C 25.152 378.575989 25.472 377.695984 26.431999 376.976013 C 43.472 365.056 53.711998 343.056 53.071999 322.015991 L 85 322.015991 Z"/>
        <path id="path22" fill="#efb381" stroke="none" d="M 85 284.247986 L 85 322.007996 L 53.080002 322.007996 C 53 317.528015 52.360001 313.127991 51.248001 308.888 C 50.928001 307.76001 51.248001 306.888 51.568001 306.328003 C 51.967999 305.768005 52.528 304.968018 53.648003 304.727997 C 65.639999 301.528015 76.68 294.007996 85 284.247986 Z"/>
    </g>
    <g id="Apl">
        <path id="path23" fill="#6abf4b" stroke="none" d="M 423.925568 7.00415 C 389.137939 8.421326 347.413208 29.83313 322.469086 59.046997 C 301.272858 83.60199 280.566956 124.54187 286.023773 165.80777 C 286.36557 168.389587 288.466248 170.382538 291.063873 170.583649 C 293.409058 170.766357 295.810791 170.859711 298.194153 170.862335 C 332.208832 170.862335 368.901306 152.045471 393.957153 121.745789 C 420.330231 89.751587 433.665283 48.69342 429.632172 11.915466 C 429.319275 9.032593 426.77951 6.892517 423.925568 7.00415 Z"/>
        <path id="path24" fill="#6abf4b" stroke="none" d="M 73.06546 7.00415 C 107.853096 8.421326 149.57782 29.83313 174.521942 59.046997 C 195.71817 83.60199 216.424072 124.54187 210.96727 165.80777 C 210.625473 168.389587 208.52478 170.382538 205.92717 170.583649 C 203.58197 170.766357 201.180237 170.859711 198.79689 170.862335 C 164.782196 170.862335 128.089722 152.045471 103.033875 121.745789 C 76.660805 89.751587 63.325756 48.69342 67.358871 11.915466 C 67.671745 9.032593 70.211525 6.892517 73.06546 7.00415 Z"/>
    </g>
</svg>
